<svg width="52" height="40" viewBox="0 0 52 40" fill="none" xmlns="http://www.w3.org/2000/svg">
<path d="M23.9056 28.847C23.9056 31.6961 22.7927 34.1445 20.5668 36.1923C18.43 38.151 15.7145 39.1304 12.4202 39.1304C8.59178 39.1304 5.56462 37.7949 3.33877 35.1239C1.11292 32.4529 0 29.2922 0 25.6418C0 17.3616 2.27037 11.1292 6.8111 6.94465C11.3518 2.76005 16.3822 0.445169 21.9024 0V9.08146C19.2313 9.34856 16.6939 10.417 14.2899 12.2867C11.9751 14.1564 10.7286 16.5158 10.5505 19.3649C11.4409 18.9197 12.4202 18.6971 13.4886 18.6971C16.7829 18.6971 19.3204 19.632 21.101 21.5017C22.9708 23.3714 23.9056 25.8198 23.9056 28.847ZM51.9513 28.847C51.9513 31.6961 50.8384 34.1445 48.6125 36.1923C46.4757 38.151 43.7602 39.1304 40.4659 39.1304C36.6375 39.1304 33.6103 37.7949 31.3845 35.1239C29.2477 32.4529 28.1792 29.2922 28.1792 25.6418C28.1792 17.3616 30.4051 11.1292 34.8568 6.94465C39.3975 2.76005 44.4279 0.445169 49.948 0V9.08146C47.277 9.34856 44.7396 10.417 42.3356 12.2867C40.0208 14.1564 38.7743 16.5158 38.5962 19.3649C39.4866 18.9197 40.4659 18.6971 41.5343 18.6971C44.8286 18.6971 47.3661 19.632 49.1467 21.5017C51.0165 23.3714 51.9513 25.8198 51.9513 28.847Z" fill="#FF8F1C"/>
</svg>
